# xmcd
#
# Track frame offsets:
#	150
#	16952
#	35699
#	54860
#	84895
#	109924
#	140563
#	157592
#	177712
#
# Disc length: 2726 seconds
#
# Revision: 0
# Processed by: cddbd v1.5.2PL0 Copyright (c) Steve Scherf et al.
# Submitted via: EasyCDDAExtractor 10.0.3.1
#
DISCID=690aa409
DTITLE=Bottle Up and Go - Live! CD2
DYEAR=2005
DGENRE=Blues
TTITLE0=She's My Pride and Joy
TTITLE1=Someday, Baby
TTITLE2=Too Hot To Handle
TTITLE3=Wrote It Down and Burned It
TTITLE4=Crossroads
TTITLE5=Blues For Mama
TTITLE6=Talk To Your Daughter
TTITLE7=Cant't Fool The Blues
TTITLE8=Roadhouse
EXTD=
EXTT0=
EXTT1=
EXTT2=
EXTT3=
EXTT4=
EXTT5=
EXTT6=
EXTT7=
EXTT8=
PLAYORDER=
